# xmcd
#
# Track frame offsets:
#  150
#  14207
#  26665
#  41947
#  56312
#  70362
#  90627
#  102427
#  115640
#  131465
#  151252
#  171362
#  192655
#  208025
#
# Disc length: 2968 seconds
#
# Revision: 1
# Processed by: cddbd v1.5.1PL0 Copyright (c) Steve Scherf et al.
# Submitted via: Collectorz.com_Music_Collector 6.9
#
DISCID=c90b960e
DTITLE=John Hammond - At the Crossroads: Blues of Robert Johnson
DYEAR=2003
DGENRE=Blues -  Blues Traditional
TTITLE0=32-20 Blues
TTITLE1=Milkcow's Calf Blues
TTITLE2=Travelling Riverside Blues
TTITLE3=Stones In My Passway
TTITLE4=Cross Road Blues
TTITLE5=Hellhound Blues (Hellhound On My Trail)
TTITLE6=Me And The Devil Blues
TTITLE7=Walking Blues
TTITLE8=Come On In My Kitchen
TTITLE9=Preaching Blues (Up Jumped The Devil)
TTITLE10=Sweet Home Chicago
TTITLE11=When You Got A Good Friend
TTITLE12=Judgment Day ( If I Had Possession Over Judgment Day)
TTITLE13=Rambling Blues (Rambling On My Mind)
EXTD=
EXTT0=
EXTT1=
EXTT2=
EXTT3=
EXTT4=
EXTT5=
EXTT6=
EXTT7=
EXTT8=
EXTT9=
EXTT10=
EXTT11=
EXTT12=
EXTT13=
PLAYORDER=
